<svg xmlns="http://www.w3.org/2000/svg" version="1.1" xmlns:xlink="http://www.w3.org/1999/xlink" xmlns:svgjs="http://svgjs.dev/svgjs" width="350" height="1290" preserveAspectRatio="none" viewBox="0 0 350 1290"><g mask="url(&quot;#SvgjsMask1065&quot;)" fill="none"><rect width="350" height="1290" x="0" y="0" fill="rgba(187, 212, 206, 1)"></rect><path d="M0,290.28C52.884,278.084,103.558,261.363,147.474,229.475C189.566,198.912,220.768,157.884,245.421,112.08C271.493,63.64,288.21,12.505,293.713,-42.23C300.582,-110.547,329.815,-195.176,281.188,-243.651C231.63,-293.054,145.14,-247.776,76.097,-259.164C18.438,-268.675,-32.681,-318.475,-89.495,-304.793C-146.706,-291.015,-180.771,-234.443,-217.494,-188.46C-252.868,-144.167,-292.045,-99.237,-298.622,-42.935C-305.132,12.794,-268.306,61.563,-253.009,115.545C-234.343,181.414,-255.131,270.428,-198.797,309.334C-142.888,347.946,-66.208,305.549,0,290.28" fill="#659e90"></path><path d="M350 1637.54C440.93899999999996 1633.182 523.7280000000001 1721.911 611.078 1696.245 702.672 1669.3319999999999 794.671 1595.153 813.067 1501.476 831.75 1406.339 717.002 1335.152 700.761 1239.568 685.2 1147.988 776.779 1042.638 722.316 967.386 669.0699999999999 893.816 552.396 915.221 461.769 909.351 388.007 904.573 318.984 923.5609999999999 246.21699999999998 936.549 163.344 951.341 73.84899999999999 942.71 4.829000000000008 990.9069999999999-72.59699999999998 1044.974-159.892 1122.932-155.79500000000002 1217.278-151.582 1314.301-15.718000000000018 1350.257 24.274999999999977 1438.754 64.53699999999998 1527.845-11.124000000000024 1671.136 72.32799999999997 1722.066 156.621 1773.509 251.362 1642.267 350 1637.54" fill="#ffffff"></path></g><defs><mask id="SvgjsMask1065"><rect width="350" height="1290" fill="#ffffff"></rect></mask></defs></svg>