<svg xmlns="http://www.w3.org/2000/svg" version="1.1" xmlns:xlink="http://www.w3.org/1999/xlink" xmlns:svgjs="http://svgjs.dev/svgjs" width="4460" height="2999" preserveAspectRatio="none" viewBox="0 0 4460 2999"><g mask="url(&quot;#SvgjsMask1078&quot;)" fill="none"><rect width="4460" height="2999" x="0" y="0" fill="rgba(187, 212, 206, 1)"></rect><path d="M0,1255.334C242.87,1263.04,463.715,1160.926,691.216,1075.553C979.302,967.444,1331.708,940.654,1508.902,689.092C1690.449,431.349,1685.463,74.82,1612.065,-231.78C1541.848,-525.093,1312.54,-738.262,1113.051,-964.464C915.325,-1188.666,749.726,-1503.476,453.722,-1545.234C156.868,-1587.112,-62.87,-1275.338,-343.527,-1169.946C-595.779,-1075.221,-910.051,-1143.12,-1106.947,-959.175C-1308.048,-771.302,-1335.211,-469.869,-1383,-198.845C-1432.193,80.142,-1530.734,389.194,-1387.831,633.801C-1245.94,876.676,-920.307,917.598,-663.59,1032.567C-446.24,1129.906,-238.031,1247.782,0,1255.334" fill="#659e90"></path><path d="M4460 4236.841C4727.664 4248.484 5005.647 4339.711 5247.369 4224.17 5499.225 4103.785 5673.0740000000005 3859.822 5784.351000000001 3603.811 5894.416 3350.59 5880.93 3072.376 5867.884 2796.577 5853.557 2493.709 5892.901 2158.189 5704.72 1920.444 5514.986 1680.737 5178.219 1638.053 4884.308 1553.94 4592.367 1470.391 4283.285 1323.073 4000.062 1432.595 3719.908 1540.93 3587.201 1852.688 3437.834 2113.288 3312.197 2332.485 3280.431 2577.327 3205.6220000000003 2818.648 3114.236 3113.443 2839.575 3400.434 2949.407 3688.865 3058.136 3974.4 3428.233 4053.343 3715.455 4157.534 3954.93 4244.405 4205.496 4225.77 4460 4236.841" fill="#ffffff"></path></g><defs><mask id="SvgjsMask1078"><rect width="4460" height="2999" fill="#ffffff"></rect></mask></defs></svg>